<?xml version="1.0" encoding="utf-8"?>
<!-- Generator: Adobe Illustrator 16.0.0, SVG Export Plug-In . SVG Version: 6.00 Build 0)  -->
<!DOCTYPE svg PUBLIC "-//W3C//DTD SVG 1.1//EN" "http://www.w3.org/Graphics/SVG/1.1/DTD/svg11.dtd">
<svg version="1.1" id="레이어_1" xmlns="http://www.w3.org/2000/svg" xmlns:xlink="http://www.w3.org/1999/xlink" x="0px"
	 y="0px" width="54.5px" height="50px" viewBox="82 0 54.5 50" enable-background="new 82 0 54.5 50" xml:space="preserve">
<path fill="#174880" d="M110,0c-1.729,0-3.125,1.396-3.125,3.125V5c-7.129,1.445-12.5,7.754-12.5,15.313v1.836
	c0,4.59-1.689,9.023-4.736,12.461l-0.723,0.811c-0.82,0.918-1.016,2.236-0.518,3.359s1.621,1.846,2.852,1.846h37.5
	c1.23,0,2.344-0.723,2.852-1.846s0.303-2.441-0.518-3.359l-0.723-0.811c-3.047-3.438-4.736-7.861-4.736-12.461v-1.836
	c0-7.559-5.371-13.867-12.5-15.313V3.125C113.125,1.396,111.729,0,110,0z M114.424,48.174c1.172-1.172,1.826-2.764,1.826-4.424H110
	h-6.25c0,1.66,0.654,3.252,1.826,4.424S108.34,50,110,50S113.252,49.346,114.424,48.174z"/>
<circle fill="#00FF5B" stroke="#FFFFFF" stroke-width="2" stroke-miterlimit="10" cx="97.875" cy="16.125" r="9.375"/>
</svg>
