<?xml version="1.0" encoding="utf-8"?>
<!-- Generator: Adobe Illustrator 16.0.0, SVG Export Plug-In . SVG Version: 6.00 Build 0)  -->
<!DOCTYPE svg PUBLIC "-//W3C//DTD SVG 1.1//EN" "http://www.w3.org/Graphics/SVG/1.1/DTD/svg11.dtd">
<svg version="1.1" id="레이어_1" xmlns="http://www.w3.org/2000/svg" xmlns:xlink="http://www.w3.org/1999/xlink" x="0px"
     y="0px" width="74.5px" height="74.25px" viewBox="72.625 -8.5 74.5 74.25" enable-background="new 72.625 -8.5 74.5 74.25"
     xml:space="preserve">
<path fill="#174880" d="M110,25c6.903,0,12.5-5.596,12.5-12.5S116.903,0,110,0S97.5,5.596,97.5,12.5S103.097,25,110,25z
    M105.537,29.688c-9.619,0-17.412,7.793-17.412,17.412c0,1.602,1.299,2.9,2.9,2.9h37.949c1.602,0,2.9-1.299,2.9-2.9
   c0-9.619-7.793-17.412-17.412-17.412H105.537z"/>
    <polygon fill="#174880" points="131.875,57.75 109.878,57.75 88.125,57.75 88.125,47.1 131.875,47.1 "/>
    <path fill="#FFFFFF" d="M107.96,29.297c0,0-1.75,0.313-0.75,2.563s1,2.25,1,2.25l-1.309,6.75l-4.021-11.098l2.268-1.184"/>
    <path fill="#FFFFFF" d="M111.13,29.297c0,0,1.75,0.313,0.75,2.563s-1,2.25-1,2.25l1.309,6.75l4.021-11.098l-2.268-1.184"/>
    <circle fill="none" stroke="#174880" stroke-width="3" stroke-miterlimit="10" cx="109.878" cy="28.578" r="35.625"/>
    <ellipse fill="#174880" cx="109.594" cy="58.219" rx="18.531" ry="5.156"/>
</svg>
