<?xml version="1.0" encoding="utf-8"?>
<!-- Generator: Adobe Illustrator 16.0.0, SVG Export Plug-In . SVG Version: 6.00 Build 0)  -->
<!DOCTYPE svg PUBLIC "-//W3C//DTD SVG 1.1//EN" "http://www.w3.org/Graphics/SVG/1.1/DTD/svg11.dtd">
<svg version="1.1" id="레이어_1" xmlns="http://www.w3.org/2000/svg" xmlns:xlink="http://www.w3.org/1999/xlink" x="0px"
	 y="0px" width="300px" height="300px" viewBox="0 0 300 300" enable-background="new 0 0 300 300" xml:space="preserve">
<g>
	<g>
		<path fill="#174880" d="M94,147c-11.222-1.333-22.444-2.667-33.667-4c1.607,2.109,3.214,4.219,4.821,6.329
			c8.445-30.111,16.889-60.223,25.333-90.333c-1.164,1.164-2.328,2.328-3.492,3.491c40-7,80-14,120-21
			c-2.05-2.05-4.101-4.1-6.149-6.149c-12.557,39.776-25.111,79.555-37.668,119.333c1.607-1.225,3.215-2.447,4.821-3.671
			c-15.667-0.89-31.333-1.777-47-2.666c-6.446-0.366-6.41,9.637,0,10c15.667,0.889,31.333,1.776,47,2.666
			c2.263,0.128,4.178-1.631,4.821-3.671c12.556-39.777,25.111-79.556,37.666-119.333c1.244-3.938-2.619-6.769-6.149-6.15
			c-40,7-80,14-120,21c-1.674,0.293-3.056,1.936-3.492,3.492c-8.445,30.11-16.889,60.222-25.333,90.333
			c-0.958,3.416,1.666,5.955,4.821,6.329c11.222,1.334,22.444,2.667,33.667,4C100.396,157.76,100.322,147.751,94,147L94,147z"/>
	</g>
</g>
<g>
	<g>
		<path fill="#174880" d="M74.464,176.203c8.818,7.698,17.635,15.397,26.453,23.097c5.082,4.438,10.164,8.875,15.246,13.313
			c2.199,1.921,4.166,4.145,7.311,4.025c26.49-0.998,52.979-1.995,79.469-2.993c6.812-0.257,13.621-0.513,20.432-0.77
			c2.225-0.084,4.227-1.464,4.82-3.671c6.441-23.92,12.884-47.842,19.326-71.762c1.365-5.074,2.731-10.149,4.1-15.225
			c0.768-2.85,1.408-4.913,0.009-7.808c-5.892-12.185-11.78-24.367-17.67-36.551c-2.103-4.35-4.206-8.699-6.31-13.049
			c-2.807-5.805-11.428-0.73-8.635,5.047c8.111,16.778,16.223,33.557,24.334,50.333c-0.168-1.283-0.336-2.567-0.504-3.853
			c-8.099,30.069-16.195,60.138-24.293,90.207c1.607-1.225,3.215-2.447,4.821-3.671c-33.569,1.265-67.14,2.527-100.708,3.793
			c1.179,0.487,2.357,0.977,3.536,1.465c-14.889-13-29.778-26-44.667-39C76.701,164.911,69.598,171.954,74.464,176.203
			L74.464,176.203z"/>
	</g>
</g>
<g>
	<g>
		<path fill="#174880" d="M84.35,62.191c9.106,12.882,18.211,25.764,27.317,38.646c1.846,2.61,4.471,2.553,7.331,3.008
			c5.072,0.807,10.144,1.614,15.215,2.42c8.152,1.297,16.305,2.594,24.458,3.891c6.308,1.004,9.013-8.632,2.658-9.643
			c-14.667-2.333-29.333-4.667-44-7c0.996,0.766,1.992,1.532,2.988,2.298c-9.111-12.889-18.222-25.777-27.333-38.667
			C89.294,51.924,80.618,56.913,84.35,62.191L84.35,62.191z"/>
	</g>
</g>
<g>
	<g>
		<path fill="#174880" d="M127.667,211.668c-2.222-37.777-4.445-75.557-6.667-113.333c-0.377-6.408-10.379-6.445-10,0
			c2.222,37.777,4.445,75.556,6.667,113.333C118.044,218.076,128.046,218.112,127.667,211.668L127.667,211.668z"/>
	</g>
</g>
<g>
	<g>
		<path fill="#174880" d="M224.5,202.215c-17.654-16.584-35.311-33.167-52.965-49.75c-4.694-4.41-11.779,2.646-7.07,7.07
			c17.654,16.584,35.311,33.167,52.965,49.75C222.124,213.695,229.209,206.638,224.5,202.215L224.5,202.215z"/>
	</g>
</g>
<g>
	<g>
		<path fill="#174880" d="M248.996,112.847c-21.396-3.57-42.792-7.139-64.188-10.708c-6.307-1.052-9.009,8.583-2.658,9.644
			c21.396,3.569,42.791,7.139,64.188,10.707C252.645,123.542,255.346,113.906,248.996,112.847L248.996,112.847z"/>
	</g>
</g>
<g enable-background="new    ">
	<path fill="#174880" d="M53.098,242.547h7.453l3.586,15.926h0.211l4.184-15.926h5.906l4.219,15.996h0.211l3.586-15.996h7.453
		L82.418,268h-6.434l-4.395-14.555h-0.211L66.984,268h-6.398L53.098,242.547z"/>
	<path fill="#174880" d="M100.031,242.547h18.176v5.414h-11.496v4.605h10.547v5.414h-10.547v4.605h11.461V268h-18.141V242.547z"/>
	<path fill="#FFFFFF" d="M157.582,248.031c-3.551,0-5.625,2.654-5.625,7.207c0,4.57,1.934,7.26,5.59,7.277
		c3.164-0.018,4.816-1.512,4.852-3.867h-4.711v-4.781h11.18v3.48c0,6.926-4.746,11.004-11.391,11.004
		c-7.383,0-12.393-4.975-12.41-13.043c0.018-8.367,5.52-13.113,12.375-13.113c5.977,0,10.582,3.621,11.145,8.719h-6.785
		C161.344,249.086,159.814,248.031,157.582,248.031z"/>
	<path fill="#FFFFFF" d="M180.047,242.547h10.828c5.695,0,9.422,3.234,9.422,8.613c0,3.516-1.617,5.994-4.359,7.295l5.203,9.545
		h-7.277l-4.518-8.473h-2.619V268h-6.68V242.547z M189.328,254.289c2.514,0,3.99-0.914,3.973-3.129
		c0.018-2.25-1.459-3.252-3.973-3.27h-2.602v6.398H189.328z"/>
	<path fill="#FFFFFF" d="M217.84,268h-6.68v-25.453h6.68V268z"/>
	<path fill="#FFFFFF" d="M229.125,268v-25.453h9.598c7.84,0,12.727,4.764,12.727,12.727c0,7.945-4.887,12.727-12.656,12.727H229.125
		z M238.547,262.305c3.92,0,6.152-1.67,6.152-7.031c0-5.379-2.232-7.031-6.328-7.031h-2.566v14.063H238.547z"/>
</g>
</svg>
