<?xml version="1.0" encoding="utf-8"?>
<!-- Generator: Adobe Illustrator 16.0.0, SVG Export Plug-In . SVG Version: 6.00 Build 0)  -->
<!DOCTYPE svg PUBLIC "-//W3C//DTD SVG 1.1//EN" "http://www.w3.org/Graphics/SVG/1.1/DTD/svg11.dtd">
<svg version="1.1" id="레이어_1" xmlns="http://www.w3.org/2000/svg" xmlns:xlink="http://www.w3.org/1999/xlink" x="0px"
	 y="0px" width="220px" height="50px" viewBox="0 0 220 50" enable-background="new 0 0 220 50" xml:space="preserve">
<g>
	<path fill="#FFFFFF" d="M86.707,10.719c-2.262,0-3.584,1.69-3.584,4.592c0,2.912,1.232,4.625,3.562,4.637
		c2.016-0.012,3.069-0.964,3.091-2.464h-3.001v-3.047h7.123v2.218c0,4.413-3.024,7.011-7.258,7.011c-4.704,0-7.896-3.169-7.907-8.31
		C78.744,10.024,82.25,7,86.618,7c3.808,0,6.742,2.307,7.101,5.555h-4.323C89.104,11.391,88.129,10.719,86.707,10.719z"/>
	<path fill="#FFFFFF" d="M101.026,7.224h6.899c3.629,0,6.003,2.062,6.003,5.488c0,2.24-1.03,3.819-2.778,4.647l3.316,6.082h-4.637
		l-2.878-5.398h-1.669v5.398h-4.256V7.224z M106.94,14.706c1.602,0,2.542-0.582,2.531-1.993c0.011-1.434-0.93-2.072-2.531-2.083
		h-1.658v4.076H106.94z"/>
	<path fill="#FFFFFF" d="M125.111,23.442h-4.256V7.224h4.256V23.442z"/>
	<path fill="#FFFFFF" d="M132.305,23.442V7.224h6.115c4.996,0,8.109,3.035,8.109,8.109c0,5.062-3.113,8.108-8.064,8.108H132.305z
		 M138.309,19.813c2.497,0,3.92-1.063,3.92-4.479c0-3.428-1.423-4.48-4.032-4.48h-1.636v8.96H138.309z"/>
</g>
</svg>
