<?xml version="1.0" encoding="utf-8"?>
<!-- Generator: Adobe Illustrator 16.0.0, SVG Export Plug-In . SVG Version: 6.00 Build 0)  -->
<!DOCTYPE svg PUBLIC "-//W3C//DTD SVG 1.1//EN" "http://www.w3.org/Graphics/SVG/1.1/DTD/svg11.dtd">
<svg version="1.1" id="레이어_1" xmlns="http://www.w3.org/2000/svg" xmlns:xlink="http://www.w3.org/1999/xlink" x="0px"
	 y="0px" width="220px" height="110px" viewBox="0 0 220 110" enable-background="new 0 0 220 110" xml:space="preserve">
<g>
	<path fill="#174880" d="M43.881,86.781h4.749l2.285,10.146h0.134l2.666-10.146h3.763l2.688,10.191H60.3l2.285-10.191h4.749
		l-4.771,16.218h-4.099l-2.8-9.272H55.53l-2.8,9.272h-4.077L43.881,86.781z"/>
	<path fill="#174880" d="M73.792,86.781h11.581v3.449h-7.325v2.935h6.72v3.45h-6.72v2.935h7.302v3.449H73.792V86.781z"/>
</g>
<g>
	<g>
		<path fill="#174880" d="M103.405,72.152c-4.971-0.59-9.941-1.182-14.912-1.771c0.711,0.936,1.423,1.868,2.134,2.803
			c3.742-13.334,7.481-26.672,11.221-40.01c-0.515,0.515-1.03,1.03-1.546,1.546c17.718-3.101,35.435-6.202,53.151-9.302
			c-0.908-0.908-1.814-1.816-2.725-2.724c-5.562,17.619-11.121,35.238-16.685,52.857c0.712-0.541,1.425-1.083,2.138-1.626
			c-6.939-0.394-13.881-0.786-20.818-1.181c-2.856-0.162-2.84,4.268,0,4.43c6.938,0.393,13.879,0.787,20.818,1.18
			c1.002,0.059,1.848-0.722,2.135-1.625C143.878,59.109,149.439,41.49,155,23.872c0.551-1.744-1.16-2.998-2.723-2.724
			c-17.717,3.1-35.437,6.2-53.152,9.301c-0.742,0.129-1.354,0.857-1.547,1.546c-3.741,13.337-7.48,26.675-11.221,40.013
			c-0.424,1.514,0.738,2.637,2.136,2.803c4.97,0.592,9.94,1.182,14.912,1.771C106.238,76.919,106.205,72.484,103.405,72.152
			L103.405,72.152z"/>
	</g>
</g>
<g>
	<g>
		<path fill="#174880" d="M94.752,85.088c3.906,3.409,7.812,6.82,11.717,10.23c2.251,1.966,4.502,3.931,6.754,5.896
			c0.973,0.85,1.844,1.835,3.236,1.782c11.732-0.442,23.467-0.884,35.199-1.326c3.019-0.112,6.031-0.228,9.05-0.342
			c0.985-0.036,1.872-0.646,2.136-1.624c2.854-10.596,5.707-21.191,8.561-31.786c0.604-2.248,1.21-4.495,1.816-6.743
			c0.338-1.263,0.622-2.176,0.004-3.459c-2.608-5.396-5.219-10.793-7.828-16.189c-0.931-1.927-1.862-3.853-2.795-5.78
			c-1.242-2.571-5.061-0.323-3.824,2.235c3.594,7.432,7.188,14.863,10.779,22.294c-0.076-0.568-0.149-1.137-0.224-1.707
			c-3.587,13.318-7.174,26.637-10.759,39.955c0.711-0.543,1.421-1.082,2.134-1.625c-14.868,0.561-29.737,1.119-44.606,1.681
			c0.522,0.216,1.045,0.433,1.565,0.647c-6.594-5.758-13.189-11.516-19.784-17.272C95.744,80.086,92.597,83.206,94.752,85.088
			L94.752,85.088z"/>
	</g>
</g>
<g>
	<g>
		<path fill="#174880" d="M99.13,34.588c4.034,5.706,8.067,11.412,12.101,17.117c0.817,1.156,1.979,1.131,3.248,1.331
			c2.246,0.358,4.492,0.717,6.738,1.072c3.609,0.575,7.223,1.149,10.832,1.725c2.794,0.444,3.993-3.824,1.178-4.271
			c-6.496-1.033-12.992-2.066-19.488-3.101c0.441,0.339,0.882,0.679,1.324,1.018c-4.037-5.709-8.072-11.417-12.108-17.126
			C101.321,30.041,97.479,32.25,99.13,34.588L99.13,34.588z"/>
	</g>
</g>
<g>
	<g>
		<path fill="#174880" d="M118.318,100.797c-0.985-16.732-1.971-33.466-2.953-50.2c-0.168-2.838-4.598-2.854-4.43,0
			c0.984,16.734,1.969,33.465,2.953,50.2C114.055,103.635,118.484,103.65,118.318,100.797L118.318,100.797z"/>
	</g>
</g>
<g>
	<g>
		<path fill="#174880" d="M161.209,96.609c-7.82-7.346-15.643-14.691-23.461-22.037c-2.078-1.951-5.217,1.173-3.132,3.133
			c7.819,7.346,15.641,14.691,23.459,22.036C160.154,101.693,163.294,98.568,161.209,96.609L161.209,96.609z"/>
	</g>
</g>
<g>
	<g>
		<path fill="#174880" d="M172.057,57.025c-9.476-1.583-18.953-3.163-28.43-4.743c-2.793-0.467-3.99,3.801-1.179,4.272
			c9.478,1.58,18.954,3.16,28.433,4.742C173.674,61.764,174.87,57.496,172.057,57.025L172.057,57.025z"/>
	</g>
</g>
</svg>
